<svg id="Layer_1" enable-background="new 0 0 512 512" height="512" viewBox="0 0 512 512" width="512" xmlns="http://www.w3.org/2000/svg"><g><g><path d="m198.821 32 17.689-8.845c9.411-4.705 19.789-7.155 30.311-7.155 10.522 0 20.9 2.45 30.311 7.155l17.689 8.845-10.343 10.343c-3.622 3.622-5.657 8.535-5.657 13.657h-64c0-5.122-2.035-10.035-5.657-13.657z" fill="#8caac8"/></g><g><path d="m216.51 36.489c9.411-4.706 19.789-7.156 30.311-7.156s20.9 2.45 30.311 7.156l8.8 4.4 8.889-8.889-17.689-8.845c-9.411-4.705-19.789-7.155-30.311-7.155s-20.9 2.45-30.311 7.155l-17.689 8.845 8.889 8.889z" fill="#d7e6f0"/></g><g><path d="m374.821 56v32c0 4.418 3.582 8 8 8h8v16h32v-56z" fill="#f0915a"/></g><g><path d="m214.821 56h224v24h-224z" fill="#aa5a28"/></g><g><path d="m446.821 88c4.418 0 8-3.582 8-8v-24c0-4.418-3.582-8-8-8-4.418 0-8 3.582-8 8v24c0 4.418 3.582 8 8 8z" fill="#463c4b"/></g><g><path d="m374.821 88v-20c0-2.209 1.791-4 4-4 6.627 0 12 5.373 12 12v4c8.837 0 16 7.164 16 16h-24c-4.418 0-8-3.582-8-8z" fill="#fab991"/></g><g><path d="m414.821 48h-32c-4.418 0-8 3.582-8 8 0 4.418 3.582 8 8 8h32c4.418 0 8-3.582 8-8 0-4.418-3.582-8-8-8z" fill="#fab991"/></g><g><circle cx="150.821" cy="256" fill="#8caac8" r="96"/></g><g><path d="m158.821 296h72v-64h-72c-4.418 0-8 3.582-8 8v48c0 4.418 3.582 8 8 8z" fill="#4b8c41"/></g><path d="m142.821 248c0-8.837-7.164-16-16-16h-8v48h32v-32z" fill="#f0915a"/><g><path d="m118.821 288h8c4.418 0 8-3.582 8-8v-48c0-4.418-3.582-8-8-8h-8c-4.418 0-8 3.582-8 8v48c0 4.418 3.582 8 8 8z" fill="#463c4b"/></g><g><path d="m108.154 232c13.255 0 24 10.745 24 24 0 13.255-10.745 24-24 24-4.418 0-8-3.582-8-8v-32c0-4.418 3.582-8 8-8z" fill="#fab991"/></g><g><path d="m230.821 480c-17.673 0-32-14.327-32-32v-64c0-8.487 3.371-16.626 9.373-22.627l64-64c12.496-12.497 32.758-12.497 45.254 0 12.497 12.497 12.497 32.758 0 45.255l-54.627 54.627v50.745c0 17.673-14.327 32-32 32z" fill="#aa5a28"/></g><g><path d="m406.821 480c-8.189 0-16.379-3.124-22.627-9.373l-64-64c-6.002-6.001-9.373-14.141-9.373-22.627v-80c0-17.673 14.327-32 32-32s32 14.327 32 32v66.745l54.627 54.627c12.497 12.497 12.497 32.758 0 45.255-6.248 6.249-14.438 9.373-22.627 9.373z" fill="#d76e28"/></g><g><path d="m182.821 496h64c8.837 0 16-7.163 16-16v-32h-64c-17.673 0-32 14.327-32 32 0 8.837 7.163 16 16 16z" fill="#32283c"/></g><g><path d="m438.821 448v32c0 8.837-7.163 16-16 16h-80c-8.837 0-16-7.163-16-16 0-17.673 14.327-32 32-32z" fill="#463c4b"/></g><g><path d="m390.821 304h-192c-8.837 0-16-7.163-16-16v-112h224v112c0 8.837-7.163 16-16 16z" fill="#82aa41"/></g><g><path d="m246.821 208h-32c-17.673 0-32-14.327-32-32v-64c0-17.673 14.327-32 32-32h32c17.673 0 32 14.327 32 32v64c0 17.673-14.327 32-32 32z" fill="#fab991"/></g><g><g><path d="m318.821 128v48c0 17.67-14.33 32-32 32h-24c0 35.35-28.65 64-64 64h-32c-8.84 0-16-7.16-16-16s7.16-16 16-16v-64c0-8.84 7.16-16 16-16h80v-32z" fill="#463c4b"/></g></g><g><path d="m286.821 160c-4.418 0-8-3.582-8-8v-16c0-4.418 3.582-8 8-8 8.837 0 16 7.163 16 16 0 8.837-7.163 16-16 16z" fill="#fab991"/></g><g><path d="m430.821 112h-48c-4.418 0-8 3.582-8 8v56c-17.673 0-32 14.327-32 32s14.327 32 32 32h32c17.673 0 32-14.327 32-32v-88c0-4.418-3.582-8-8-8z" fill="#a5cd3c"/></g><g><path d="m198.821 304h192v32h-192z" fill="#463c4b"/></g><g><path d="m230.821 304h48v32h-48z" fill="#faa51e"/></g><g><path d="m390.821 384h-192c-8.837 0-16-7.163-16-16v-16c0-8.837 7.163-16 16-16h192c8.837 0 16 7.163 16 16v16c0 8.837-7.163 16-16 16z" fill="#82aa41"/></g><g><path d="m318.821 128h-144c-4.418 0-8-3.582-8-8v-8c0-4.418 3.582-8 8-8h144c4.418 0 8 3.582 8 8v8c0 4.418-3.582 8-8 8z" fill="#faa51e"/></g><g><path d="m190.821 56v21.333h26.667c7.364 0 13.333 5.97 13.333 13.333 0 7.364-5.97 13.333-13.333 13.333h-26.667c-13.255 0-24-10.745-24-24v-47.999c13.255 0 24 10.745 24 24z" fill="#32283c"/></g><g><path d="m262.821 48h-32c-30.928 0-56 25.072-56 56h144c0-30.928-25.072-56-56-56z" fill="#d76e28"/></g><g><path d="m374.821 160c-26.51 0-48 21.49-48 48 0 4.418 3.582 8 8 8h-48c-4.418 0-8-3.582-8-8 0-26.51 21.49-48 48-48z" fill="#faa51e"/></g><g><path d="m374.821 176c-17.673 0-32 14.327-32 32 0 4.418-3.582 8-8 8-4.418 0-8-3.582-8-8 0-26.51 21.49-48 48-48z" fill="#d76e28"/></g><g><path d="m302.821 56v21.333h-26.667c-7.364 0-13.333 5.97-13.333 13.333 0 7.364 5.97 13.333 13.333 13.333h26.667c13.255 0 24-10.745 24-24v-47.999c-13.255 0-24 10.745-24 24z" fill="#463c4b"/></g><g><path d="m210.821 184h-24c-2.209 0-4-1.791-4-4 0-2.209 1.791-4 4-4h24c2.209 0 4 1.791 4 4 0 2.209-1.791 4-4 4z" fill="#fab991"/></g></g></svg>